<svg width="34" height="34" viewBox="0 0 34 34" fill="none" xmlns="http://www.w3.org/2000/svg">
<rect width="34" height="34" rx="1" fill="#EF233C"/>
<path d="M3 2C2.44772 2 2 2.44772 2 3L2 12C2 12.5523 2.44772 13 3 13C3.55228 13 4 12.5523 4 12L4 4L12 4C12.5523 4 13 3.55228 13 3C13 2.44772 12.5523 2 12 2L3 2ZM31 32C31.5523 32 32 31.5523 32 31L32 22C32 21.4477 31.5523 21 31 21C30.4477 21 30 21.4477 30 22L30 30L22 30C21.4477 30 21 30.4477 21 31C21 31.5523 21.4477 32 22 32L31 32ZM2.29289 3.70711L30.2929 31.7071L31.7071 30.2929L3.70711 2.29289L2.29289 3.70711Z" fill="#2B2D42"/>
<path d="M32 3C32 2.44772 31.5523 2 31 2L22 2C21.4477 2 21 2.44772 21 3C21 3.55228 21.4477 4 22 4L30 4V12C30 12.5523 30.4477 13 31 13C31.5523 13 32 12.5523 32 12V3ZM2 31C2 31.5523 2.44772 32 3 32L12 32C12.5523 32 13 31.5523 13 31C13 30.4477 12.5523 30 12 30L4 30L4 22C4 21.4477 3.55229 21 3 21C2.44772 21 2 21.4477 2 22L2 31ZM30.2929 2.29289L2.29289 30.2929L3.70711 31.7071L31.7071 3.70711L30.2929 2.29289Z" fill="#2B2D42"/>
</svg>
