<svg width="276" height="262" viewBox="0 0 276 262" fill="none" xmlns="http://www.w3.org/2000/svg">
<rect width="276" height="262" rx="37" fill="white"/>
<rect x="7.52734" y="7.27783" width="243.382" height="247.444" rx="37" fill="#2B2D42"/>
<path d="M113.359 39.7398V96.2778H102.019V59.5038L86.8719 96.2778H78.2859L63.0579 59.5038V96.2778H51.7179V39.7398H64.5969L82.5789 81.7788L100.561 39.7398H113.359ZM144.496 97.0068C140.176 97.0068 136.288 96.0618 132.832 94.1718C129.376 92.2278 126.649 89.5008 124.651 85.9908C122.707 82.4808 121.735 78.4308 121.735 73.8408C121.735 69.2508 122.734 65.2008 124.732 61.6908C126.784 58.1808 129.565 55.4808 133.075 53.5908C136.585 51.6468 140.5 50.6748 144.82 50.6748C149.14 50.6748 153.055 51.6468 156.565 53.5908C160.075 55.4808 162.829 58.1808 164.827 61.6908C166.879 65.2008 167.905 69.2508 167.905 73.8408C167.905 78.4308 166.852 82.4808 164.746 85.9908C162.694 89.5008 159.886 92.2278 156.322 94.1718C152.812 96.0618 148.87 97.0068 144.496 97.0068ZM144.496 87.1248C146.548 87.1248 148.465 86.6388 150.247 85.6668C152.083 84.6408 153.541 83.1288 154.621 81.1308C155.701 79.1328 156.241 76.7028 156.241 73.8408C156.241 69.5748 155.107 66.3078 152.839 64.0398C150.625 61.7178 147.898 60.5568 144.658 60.5568C141.418 60.5568 138.691 61.7178 136.477 64.0398C134.317 66.3078 133.237 69.5748 133.237 73.8408C133.237 78.1068 134.29 81.4008 136.396 83.7228C138.556 85.9908 141.256 87.1248 144.496 87.1248ZM48.8019 195.679C48.8019 191.143 49.6929 187.12 51.4749 183.61C53.3109 180.1 55.7949 177.4 58.9269 175.51C62.0589 173.62 65.5419 172.675 69.3759 172.675C72.2919 172.675 75.0729 173.323 77.7189 174.619C80.3649 175.861 82.4709 177.535 84.0369 179.641V158.338H95.5389V218.278H84.0369V211.636C82.6329 213.85 80.6619 215.632 78.1239 216.982C75.5859 218.332 72.6429 219.007 69.2949 219.007C65.5149 219.007 62.0589 218.035 58.9269 216.091C55.7949 214.147 53.3109 211.42 51.4749 207.91C49.6929 204.346 48.8019 200.269 48.8019 195.679ZM84.1179 195.841C84.1179 193.087 83.5779 190.738 82.4979 188.794C81.4179 186.796 79.9599 185.284 78.1239 184.258C76.2879 183.178 74.3169 182.638 72.2109 182.638C70.1049 182.638 68.1609 183.151 66.3789 184.177C64.5969 185.203 63.1389 186.715 62.0049 188.713C60.9249 190.657 60.3849 192.979 60.3849 195.679C60.3849 198.379 60.9249 200.755 62.0049 202.807C63.1389 204.805 64.5969 206.344 66.3789 207.424C68.2149 208.504 70.1589 209.044 72.2109 209.044C74.3169 209.044 76.2879 208.531 78.1239 207.505C79.9599 206.425 81.4179 204.913 82.4979 202.969C83.5779 200.971 84.1179 198.595 84.1179 195.841ZM112.365 168.058C110.367 168.058 108.693 167.437 107.343 166.195C106.047 164.899 105.399 163.306 105.399 161.416C105.399 159.526 106.047 157.96 107.343 156.718C108.693 155.422 110.367 154.774 112.365 154.774C114.363 154.774 116.01 155.422 117.306 156.718C118.656 157.96 119.331 159.526 119.331 161.416C119.331 163.306 118.656 164.899 117.306 166.195C116.01 167.437 114.363 168.058 112.365 168.058ZM117.954 173.404V218.278H106.614V173.404H117.954ZM134.18 218.845C132.128 218.845 130.427 218.224 129.077 216.982C127.781 215.686 127.133 214.093 127.133 212.203C127.133 210.313 127.781 208.747 129.077 207.505C130.427 206.209 132.128 205.561 134.18 205.561C136.178 205.561 137.825 206.209 139.121 207.505C140.417 208.747 141.065 210.313 141.065 212.203C141.065 214.093 140.417 215.686 139.121 216.982C137.825 218.224 136.178 218.845 134.18 218.845Z" fill="white"/>
</svg>
