<svg width="59" height="59" viewBox="0 0 59 59" fill="none" xmlns="http://www.w3.org/2000/svg">
<path d="M42.0272 8C42.0272 8 42.8668 13.612 42.9878 15.5C43.2164 19.082 40.1925 22 36.7439 22C33.2954 22 30.5 19.09 30.5 15.5C30.5 19.09 27.7046 22 24.2561 22C20.8075 22 17.7836 19.082 18.0122 15.5C18.1332 13.612 18.9728 8 18.9728 8" stroke="#EDF2F4" stroke-width="3" stroke-miterlimit="10" stroke-linecap="round" stroke-linejoin="round"/>
<path d="M30 8V16" stroke="#EDF2F4" stroke-width="3" stroke-miterlimit="10" stroke-linecap="round" stroke-linejoin="round"/>
<path d="M42.4792 15.5C42.4792 19.09 45.2727 22 48.7189 22C52.1651 22 55.4058 19.06 54.9585 15.5C54.7166 13.576 51.1187 8 51.1187 8H8.88127C8.88127 8 5.28341 13.576 5.04151 15.5C4.59417 19.06 7.83494 22 11.2811 22C14.7273 22 17.5208 19.09 17.5208 15.5" stroke="#EDF2F4" stroke-width="3" stroke-miterlimit="10" stroke-linecap="round" stroke-linejoin="round"/>
<path d="M5 51H55" stroke="#EDF2F4" stroke-width="3" stroke-miterlimit="10" stroke-linecap="round" stroke-linejoin="round"/>
<path d="M44 27H17V43H44V27Z" stroke="#EDF2F4" stroke-width="3" stroke-miterlimit="10" stroke-linecap="round" stroke-linejoin="round"/>
<path d="M51 51V22" stroke="#EDF2F4" stroke-width="3" stroke-miterlimit="10" stroke-linecap="round" stroke-linejoin="round"/>
<path d="M9 22V51" stroke="#EDF2F4" stroke-width="3" stroke-miterlimit="10" stroke-linecap="round" stroke-linejoin="round"/>
</svg>
